<svg width="100" height="100" viewBox="0 0 156 158" fill="none" xmlns="http://www.w3.org/2000/svg">
<rect x="14.4064" y="52.5139" width="129.17" height="53.9721" fill="white"/>
<path d="M74.5745 1.04729C49.6797 2.11468 26.9129 14.9644 13.0537 35.7784C5.68757 46.8491 1.39066 59.2608 0.217532 72.9316C-0.0143646 75.5042 -0.0143646 82.7159 0.217532 85.2476C0.46307 88.135 0.995068 91.9529 1.4725 94.334C6.61515 120.157 24.3621 141.655 48.7385 151.549C63.3071 157.46 79.84 158.774 95.2406 155.23C104.557 153.095 113.233 149.332 121.172 143.981C139.669 131.556 152.069 111.645 154.975 89.7087C155.52 85.6307 155.657 83.4823 155.657 79.0896C155.657 74.6558 155.52 72.4663 154.988 68.4705C151.087 39.4184 130.953 14.8138 103.207 5.22104C94.2039 2.10099 84.0959 0.636761 74.5745 1.04729ZM42.1772 57.2355C46.1877 57.9471 49.0523 60.0135 50.7028 63.4072C51.494 65.0083 51.7123 65.9936 51.7123 67.9368C51.7123 69.9073 51.494 70.8652 50.6483 72.5895C49.6797 74.56 48.4111 75.9148 46.4878 77.0643C45.8739 77.4201 45.8739 77.4338 46.2013 77.5569C49.7343 78.9117 51.6713 80.5812 52.9536 83.3728C53.6766 84.9465 53.8812 86.2055 53.7993 88.3129C53.7175 90.3518 53.4447 91.5013 52.6126 93.294C51.2757 96.154 48.9568 98.3299 46.2286 99.2878C43.6368 100.191 41.7407 100.287 28.0315 100.3H17.5552V78.5969V56.9071L29.2592 56.9618C39.1489 57.0166 41.1405 57.0576 42.1772 57.2355ZM68.9817 78.6106V100.3H64.753H60.5243V78.6106V56.9208H64.753H68.9817V78.6106ZM129.343 68.4705C133.435 69.5378 136.655 72.2747 138.292 76.079C139.328 78.5011 139.86 81.1559 140.01 84.7275L140.092 86.8897H129.684H119.276L119.358 87.916C119.535 89.955 120.422 91.8845 121.718 93.034C123.914 94.9909 127.502 95.1825 129.466 93.4445C130.052 92.9245 131.185 90.9813 131.185 90.5024C131.185 90.3929 131.28 90.3108 131.403 90.3108C131.621 90.3108 138.783 91.4877 139.328 91.6108L139.628 91.6792L139.219 92.6645C137.296 97.3446 133.831 100.123 128.934 100.916C127.488 101.149 124.555 101.176 123.068 100.971C116.234 100.027 112.005 95.5519 110.914 88.0939C110.614 86.0002 110.71 81.9496 111.119 80.0201C111.842 76.6674 113.069 74.2453 115.102 72.1516C116.712 70.4957 118.157 69.5378 120.135 68.8262C121.95 68.1557 123.041 68.0052 125.66 68.0599C127.611 68.101 128.197 68.1694 129.343 68.4705ZM85.0781 78.5148C85.0781 84.4402 85.1327 88.7918 85.2282 89.7087C85.4191 91.6108 85.8011 92.5277 86.7832 93.4445C89.2659 95.7025 94.1357 94.6077 95.8408 91.4055C96.6866 89.8318 96.7002 89.5034 96.7684 78.638L96.8366 68.8262H101.052H105.267V84.5633V100.3H101.379H97.4914L97.4641 98.0425L97.4232 95.7846L96.7411 96.633C95.3361 98.3709 92.7307 100.04 90.3299 100.738C89.3887 101.012 88.9385 101.053 87.056 101.053C84.4915 101.053 83.7822 100.889 81.8043 99.9173C79.4307 98.7541 77.862 96.7425 77.18 93.9919C76.6889 92.0761 76.6207 90.1603 76.6207 79.3222V68.8262H80.8494H85.0781V78.5148Z" fill="#204E92"/>
<path d="M26.4218 69.3052V74.3411L32.3966 74.259C38.7806 74.1632 39.3808 74.1084 40.7176 73.4242C41.5633 72.9863 42.4364 72.0694 42.8047 71.221C43.2139 70.3178 43.2548 68.4157 42.8865 67.362C42.3954 65.9662 41.1405 64.9672 39.3808 64.5978C38.9033 64.4883 36.3661 64.4062 32.533 64.3514L26.4218 64.2693V69.3052Z" fill="#204E92"/>
<path d="M26.4218 87.3139V92.9519L33.0104 92.8698C38.0576 92.8151 39.79 92.7466 40.4857 92.5961C42.9956 92.0214 44.4007 90.5982 44.6871 88.3266C45.0827 85.0834 43.4867 82.8117 40.322 82.1549C38.9443 81.8675 35.2885 81.6896 30.5551 81.6896H26.4218V87.3139Z" fill="#204E92"/>
<path d="M124.473 74.5737C122.932 74.8337 121.131 76.1474 120.354 77.5706C119.89 78.4327 119.453 80.1432 119.453 81.1011V81.8264H125.605H131.758L131.662 80.9096C131.294 77.4474 129.589 75.2168 126.874 74.6421C125.851 74.4231 125.442 74.4095 124.473 74.5737Z" fill="#204E92"/>
</svg>
